<?xml version="1.0" encoding="UTF-8"?>
<svg id="Layer_1" data-name="Layer 1" xmlns="http://www.w3.org/2000/svg" viewBox="0 0 1673.61 207.78">
  <defs>
    <style>
      .cls-1 {
        fill: #ede7d6;
      }
    </style>
  </defs>
  <path class="cls-1" d="M125.87,129.72l30.03,29.99-10.4,18.02,10.24,5.91,8.82-15.26,15.54,15.55-6.97,12.04h-47.26v-66.24ZM98.94,146.12l-20.42-35.33,35.54-35.53v120.7h-47.25l-14.75-25.54,29.96-29.95,6.67,11.56,10.24-5.91ZM13.65,103.89L66.8,11.82h47.25v46.68L49.21,123.37l8.43,8.32,12.26-12.25,5.99,10.39-29.95,29.96L13.65,103.89ZM125.87,26.99v-15.17h47.25l53.16,92.07-40.09,69.43-60.32-60.31V43.71l36.98,36.97-12.43,21.53,10.24,5.91,10.86-18.78,17.12,17.12,8.34-8.42-28.5-28.44h16.19v-11.82h-28.02l-30.78-30.77ZM59.98,0L0,103.89l59.98,103.89h119.96l59.98-103.89L179.94,0H59.98Z"/>
  <g>
    <path class="cls-1" d="M337.52,103.24c0,19.23,12.71,33.24,30.8,33.24,4.41,0,8.64-.81,12.23-2.44l-9.45-8.31,16.14-18.9,9.94,8.64c1.14-3.75,1.96-7.82,1.96-12.22,0-18.74-12.55-32.92-30.81-32.92s-30.8,14.18-30.8,32.92M308.51,103.24c0-33.08,23.79-59,59.81-59s59.81,25.91,59.81,59c0,11.9-3.1,22.82-8.47,31.94l10.1,8.8-16.46,19.07-11.08-9.78c-9.29,5.87-20.86,9.29-33.9,9.29-36.02,0-59.81-25.75-59.81-59.32"/>
    <path class="cls-1" d="M454.55,116.6V46.36h27.87v70.24c0,12.39,7.5,20.05,19.88,20.05s19.56-7.66,19.56-20.21V46.36h27.87v70.08c0,26.73-17.44,45.96-47.59,45.96s-47.59-18.58-47.59-45.79"/>
  </g>
  <path class="cls-1" d="M627.29,75.86l-10.76,36.18h21.51l-10.76-36.18ZM609.36,134.86l-8.15,25.59h-28.03l39.44-114.08h29.34l39.44,114.08h-28.03l-8.15-25.59h-35.86Z"/>
  <polygon class="cls-1" points="704.71 160.44 704.71 46.36 732.58 46.36 732.58 135.51 766.8 135.51 766.8 160.44 704.71 160.44"/>
  <rect class="cls-1" x="791.58" y="46.36" width="27.87" height="114.08"/>
  <polygon class="cls-1" points="897.35 71.3 897.35 160.44 869.48 160.44 869.48 71.3 844.88 71.3 844.88 46.36 921.97 46.36 921.97 71.3 897.35 71.3"/>
  <polygon class="cls-1" points="978.03 160.44 978.03 108.94 943.15 46.36 974.45 46.36 991.88 83.68 1009.81 46.36 1040.61 46.36 1005.74 108.94 1005.74 160.44 978.03 160.44"/>
  <g>
    <path class="cls-1" d="M1147.33,71.29v24.61h8.31c7.66,0,12.39-4.73,12.39-12.55s-3.59-12.06-13.69-12.06h-7.01ZM1180.74,112.53s-.16-.32,26.24,48.89h-30.81l-20.37-42.21h-8.47v42.21h-27.87V47.34h37.16c26.89,0,39.93,12.39,39.93,35.04,0,12.55-5.38,24.45-15.81,30.15"/>
    <path class="cls-1" d="M1253.6,104.22c0,19.23,12.71,33.24,30.8,33.24s30.81-14.02,30.81-33.24-12.55-32.92-30.81-32.92-30.8,14.18-30.8,32.92M1224.59,104.22c0-33.08,23.79-59,59.81-59s59.82,25.91,59.82,59-23.79,59.32-59.82,59.32-59.81-25.75-59.81-59.32"/>
    <path class="cls-1" d="M1394.25,104.22c0,19.23,12.71,33.24,30.8,33.24s30.81-14.02,30.81-33.24-12.55-32.92-30.81-32.92-30.8,14.18-30.8,32.92M1365.25,104.22c0-33.08,23.79-59,59.81-59s59.82,25.91,59.82,59-23.79,59.32-59.82,59.32-59.81-25.75-59.81-59.32"/>
  </g>
  <polygon class="cls-1" points="1552.19 72.28 1552.19 161.42 1524.32 161.42 1524.32 72.28 1499.71 72.28 1499.71 47.34 1576.8 47.34 1576.8 72.28 1552.19 72.28"/>
  <path class="cls-1" d="M1672.47,71.62l-23.14,10.6c-2.28-5.05-5.71-11.25-14.34-11.25-5.38,0-8.96,3.26-8.96,7.66,0,15.48,47.59,13.85,47.59,48.73,0,21.02-14.99,36.18-39.93,36.18s-35.86-18.58-38.79-27.22l23.31-11.57c3.1,6.68,9.29,12.71,17.11,12.71,6.68,0,10.1-2.93,10.1-7.98,0-15.16-47.26-13.85-47.26-50.36,0-20.53,14.83-33.9,37.48-33.9,24.45,0,33.9,17.76,36.83,26.4"/>
</svg>