<?xml version="1.0" encoding="UTF-8"?>
<svg id="Layer_1" data-name="Layer 1" xmlns="http://www.w3.org/2000/svg" viewBox="0 0 1245.19 316.59">
  <defs>
    <style>
      .cls-1 {
        fill: #253529;
      }
    </style>
  </defs>
  <path class="cls-1" d="M186.33,196.78l44.46,45.09-15.4,27.09,15.15,8.89,13.05-22.96,23.02,23.39-10.33,18.09h-69.95v-99.59ZM146.45,221.43l-30.23-53.12,52.61-53.42v181.47h-69.93l-21.83-38.4,44.35-45.03,9.89,17.4,15.15-8.9ZM20.2,157.93L98.9,19.51h69.93v70.19l-95.98,97.53,12.47,12.52,18.16-18.42,8.87,15.64-44.33,45.04-47.82-84.06ZM186.33,42.3v-22.8h69.95l78.69,138.42-59.35,104.4-89.29-90.69v-104.19l54.74,55.59-18.39,32.36,15.15,8.89,16.07-28.24,25.34,25.74,12.35-12.67-42.18-42.77h23.97v-17.77h-41.48l-45.57-46.27ZM88.8,1.73L0,157.93l88.8,156.21h177.58l88.8-156.21L266.38,1.73H88.8Z"/>
  <g>
    <path class="cls-1" d="M460.32,210.24h-7.96v28.37h9.43c4.32,0,7.74-1.28,10.27-3.85,2.52-2.56,3.79-6.1,3.79-10.61,0-9.27-5.17-13.9-15.54-13.9M508.23,223.02c0,7.52-1.54,14.37-4.62,20.57-3.09,6.2-7.52,10.93-13.32,14.19l29.78,56.36h-34.96l-23.12-48.66h-9.62v48.66h-31.63v-131.52h42.18c30.21,0,45.32,13.47,45.32,40.4"/>
    <path class="cls-1" d="M637.71,221.05c-6.53-7.2-14.92-10.8-25.16-10.8s-18.62,3.6-25.15,10.8c-6.53,7.2-9.8,16.25-9.8,27.15s3.27,20.32,9.8,27.52c6.53,7.2,14.92,10.8,25.15,10.8s18.63-3.6,25.16-10.8c6.53-7.2,9.8-16.38,9.8-27.52s-3.27-19.95-9.8-27.15M661.58,297.14c-12.58,12.96-28.92,19.45-49.02,19.45s-36.44-6.48-49.01-19.45c-12.59-12.96-18.87-29.28-18.87-48.94s6.28-35.6,18.87-48.57c12.57-12.96,28.91-19.44,49.01-19.44s36.44,6.48,49.02,19.44c12.58,12.97,18.87,29.16,18.87,48.57s-6.29,35.98-18.87,48.94"/>
    <path class="cls-1" d="M801.97,221.05c-6.53-7.2-14.92-10.8-25.16-10.8s-18.62,3.6-25.15,10.8c-6.53,7.2-9.8,16.25-9.8,27.15s3.27,20.32,9.8,27.52c6.53,7.2,14.92,10.8,25.15,10.8s18.63-3.6,25.16-10.8c6.53-7.2,9.8-16.38,9.8-27.52s-3.27-19.95-9.8-27.15M825.83,297.14c-12.58,12.96-28.92,19.45-49.02,19.45s-36.44-6.48-49.01-19.45c-12.59-12.96-18.87-29.28-18.87-48.94s6.28-35.6,18.87-48.57c12.57-12.96,28.91-19.44,49.01-19.44s36.44,6.48,49.02,19.44c12.58,12.97,18.87,29.16,18.87,48.57s-6.29,35.98-18.87,48.94"/>
  </g>
  <polygon class="cls-1" points="866.16 182.62 866.16 211.37 894.1 211.37 894.1 314.14 925.72 314.14 925.72 211.37 953.65 211.37 953.65 182.62 866.16 182.62"/>
  <g>
    <path class="cls-1" d="M1025.05,180.18c6.53,0,12.42,1.07,17.67,3.2,5.24,2.13,9.43,4.94,12.58,8.45,3.14,3.51,5.61,6.73,7.39,9.68,1.79,2.94,3.18,5.98,4.17,9.11l-26.27,12.21c-1.11-2.5-2.19-4.54-3.24-6.1-1.05-1.57-2.71-3.1-4.99-4.6-2.29-1.5-4.97-2.25-8.05-2.25s-5.55.85-7.4,2.53c-1.85,1.69-2.78,3.79-2.78,6.3,0,3.26,1.85,6.17,5.55,8.73,3.7,2.57,8.2,5.02,13.5,7.33,5.3,2.32,10.61,4.97,15.91,7.98,5.29,3.01,9.8,7.27,13.5,12.78,3.7,5.51,5.54,11.96,5.54,19.35,0,12.4-4.07,22.45-12.2,30.15-8.14,7.71-19.18,11.56-33.11,11.56-6.78,0-12.95-1.13-18.5-3.39-5.55-2.25-9.99-5.16-13.32-8.73-3.33-3.57-5.95-6.92-7.86-10.05-1.91-3.13-3.36-6.2-4.34-9.21l26.45-13.34c1.85,4.13,4.5,7.61,7.95,10.42,3.45,2.82,7.27,4.23,11.47,4.23,7.65,0,11.46-3.07,11.46-9.2,0-2.63-1.33-5.11-3.97-7.42-2.66-2.32-5.95-4.32-9.9-6.01-3.95-1.69-8.26-3.82-12.94-6.39-4.69-2.56-9.01-5.35-12.95-8.36-3.95-3-7.25-7.07-9.9-12.21-2.64-5.14-3.97-11.02-3.97-17.66,0-11.77,3.88-21.23,11.65-28.37,7.77-7.14,18.07-10.71,30.89-10.71"/>
    <path class="cls-1" d="M447.35,68.36c0,22.28,14.5,38.52,35.14,38.52,5.02,0,9.85-.95,13.95-2.83l-10.78-9.63,18.41-21.91,11.34,10.01c1.3-4.35,2.23-9.07,2.23-14.16,0-21.72-14.32-38.15-35.14-38.15s-35.14,16.43-35.14,38.15M414.26,68.36c0-38.33,27.15-68.36,68.23-68.36s68.24,30.03,68.24,68.36c0,13.78-3.53,26.44-9.67,37.01l11.53,10.19-18.78,22.1-12.64-11.33c-10.59,6.8-23.79,10.76-38.67,10.76-41.09,0-68.23-29.84-68.23-68.74"/>
    <path class="cls-1" d="M580.86,83.85V2.45h31.79v81.39c0,14.35,8.55,23.22,22.68,23.22s22.32-8.87,22.32-23.41V2.45h31.79v81.21c0,30.97-19.89,53.25-54.29,53.25s-54.29-21.53-54.29-53.06"/>
  </g>
  <path class="cls-1" d="M773.67,36.64l12.27,41.92h-24.55l12.27-41.92ZM756.94,2.45l-44.99,132.2h31.98l9.3-29.66h40.9l9.3,29.66h31.97L790.4,2.45h-33.47Z"/>
  <polygon class="cls-1" points="861.99 2.45 861.99 134.65 932.83 134.65 932.83 105.75 893.78 105.75 893.78 2.45 861.99 2.45"/>
  <rect class="cls-1" x="961.09" y="2.46" width="31.79" height="132.19"/>
  <polygon class="cls-1" points="1021.89 2.45 1021.89 31.35 1049.97 31.35 1049.97 134.65 1081.76 134.65 1081.76 31.35 1109.83 31.35 1109.83 2.45 1021.89 2.45"/>
  <polygon class="cls-1" points="1210.05 2.45 1189.6 45.7 1169.71 2.45 1134.01 2.45 1173.79 74.97 1173.79 134.65 1205.4 134.65 1205.4 74.97 1245.19 2.45 1210.05 2.45"/>
</svg>