<?xml version="1.0" encoding="UTF-8"?>
<svg id="Layer_1" xmlns="http://www.w3.org/2000/svg" version="1.1" viewBox="0 0 825.6 825.6">
  <!-- Generator: Adobe Illustrator 29.4.0, SVG Export Plug-In . SVG Version: 2.1.0 Build 152)  -->
  <g>
    <path d="M90.6,517.5c0,18.4,12.2,31.8,29.5,31.8s8.3-.8,11.7-2.3l-9.1-8,15.5-18.1,9.5,8.3c1.1-3.6,1.9-7.5,1.9-11.7,0-18-12-31.5-29.5-31.5s-29.5,13.6-29.5,31.5M62.8,517.5c0-31.7,22.8-56.5,57.3-56.5s57.3,24.8,57.3,56.5-3,21.9-8.1,30.6l9.7,8.4-15.8,18.3-10.6-9.4c-8.9,5.6-20,8.9-32.5,8.9-34.5,0-57.3-24.7-57.3-56.8"/>
    <path d="M202.7,530.3v-67.3h26.7v67.3c0,11.9,7.2,19.2,19,19.2s18.7-7.3,18.7-19.4v-67.1h26.7v67.1c0,25.6-16.7,44-45.6,44s-45.6-17.8-45.6-43.9"/>
  </g>
  <path d="M364.6,491.3l-10.3,34.7h20.6l-10.3-34.7ZM347.4,547.8l-7.8,24.5h-26.9l37.8-109.3h28.1l37.8,109.3h-26.9l-7.8-24.5h-34.3Z"/>
  <polygon points="438.7 572.3 438.7 463 465.4 463 465.4 548.4 498.2 548.4 498.2 572.3 438.7 572.3"/>
  <rect x="521.9" y="463" width="26.7" height="109.3"/>
  <polygon points="623.3 486.9 623.3 572.3 596.6 572.3 596.6 486.9 573 486.9 573 463 646.8 463 646.8 486.9 623.3 486.9"/>
  <polygon points="731 463 713.8 498.8 697.1 463 667.1 463 700.6 523 700.6 572.3 727.1 572.3 727.1 523 760.5 463 731 463"/>
  <g>
    <path d="M173.8,625v23.6h8c7.3,0,11.9-4.5,11.9-12s-3.4-11.6-13.1-11.6h-6.7ZM205.9,664.5s-.2-.3,25.1,46.8h-29.5l-19.5-40.4h-8.1v40.4h-26.7v-109.3h35.6c25.8,0,38.3,11.9,38.3,33.6s-5.2,23.4-15.1,28.9"/>
    <path d="M275.6,656.5c0,18.4,12.2,31.8,29.5,31.8s29.5-13.4,29.5-31.8-12-31.5-29.5-31.5-29.5,13.6-29.5,31.5M247.9,656.5c0-31.7,22.8-56.5,57.3-56.5s57.3,24.8,57.3,56.5-22.8,56.8-57.3,56.8-57.3-24.7-57.3-56.8"/>
    <path d="M410.4,656.5c0,18.4,12.2,31.8,29.5,31.8s29.5-13.4,29.5-31.8-12-31.5-29.5-31.5-29.5,13.6-29.5,31.5M382.6,656.5c0-31.7,22.8-56.5,57.3-56.5s57.3,24.8,57.3,56.5-22.8,56.8-57.3,56.8-57.3-24.7-57.3-56.8"/>
  </g>
  <polygon points="511.4 602 511.4 625.9 535 625.9 535 711.3 561.7 711.3 561.7 625.9 585.2 625.9 585.2 602 511.4 602"/>
  <path d="M676.9,625.3l-22.2,10.1c-2.2-4.8-5.5-10.8-13.7-10.8s-8.6,3.1-8.6,7.3c0,14.8,45.6,13.3,45.6,46.7s-14.4,34.7-38.2,34.7-34.4-17.8-37.2-26.1l22.3-11.1c3,6.4,8.9,12.2,16.4,12.2s9.7-2.8,9.7-7.6c0-14.5-45.3-13.3-45.3-48.2s14.2-32.5,35.9-32.5,32.5,17,35.3,25.3"/>
  <path d="M420.8,278.1l46.5,46.4-16.1,27.9,15.8,9.2,13.6-23.6,24.1,24.1-10.8,18.6h-73.1v-102.5ZM379.1,303.5l-31.6-54.7,55-55v186.7h-73.1l-22.8-39.5,46.3-46.3,10.3,17.9,15.8-9.1ZM247.1,238.1l82.2-142.4h73.1v72.2l-100.3,100.4,13,12.9,19-19,9.3,16.1-46.3,46.4-50-86.5ZM420.8,119.1v-23.5h73.1l82.2,142.4-62,107.4-93.3-93.3v-107.2l57.2,57.2-19.2,33.3,15.8,9.1,16.8-29.1,26.5,26.5,12.9-13-44.1-44h25.1v-18.3h-43.4l-47.6-47.6ZM318.8,77.4l-92.8,160.7,92.8,160.8h185.6l92.8-160.8-92.8-160.7h-185.6Z"/>
</svg>