<?xml version="1.0" encoding="UTF-8"?>
<svg id="Layer_1" xmlns="http://www.w3.org/2000/svg" version="1.1" viewBox="0 0 1673.6 207.8">
  <!-- Generator: Adobe Illustrator 29.4.0, SVG Export Plug-In . SVG Version: 2.1.0 Build 152)  -->
  <defs>
    <style>
      .st0 {
        fill: #fff;
      }
    </style>
  </defs>
  <path class="st0" d="M125.9,129.7l30,30-10.4,18,10.2,5.9,8.8-15.3,15.5,15.5-7,12h-47.3v-66.2ZM98.9,146.1l-20.4-35.3,35.5-35.5v120.7h-47.2l-14.7-25.5,30-30,6.7,11.6,10.2-5.9ZM13.6,103.9L66.8,11.8h47.2v46.7L49.2,123.4l8.4,8.3,12.3-12.3,6,10.4-29.9,30L13.6,103.9ZM125.9,27v-15.2h47.3l53.2,92.1-40.1,69.4-60.3-60.3V43.7l37,37-12.4,21.5,10.2,5.9,10.9-18.8,17.1,17.1,8.3-8.4-28.5-28.4h16.2v-11.8h-28l-30.8-30.8ZM60,0L0,103.9l60,103.9h120l60-103.9L179.9,0H60Z"/>
  <g>
    <path class="st0" d="M337.5,103.2c0,19.2,12.7,33.2,30.8,33.2s8.6-.8,12.2-2.4l-9.5-8.3,16.1-18.9,9.9,8.6c1.1-3.7,2-7.8,2-12.2,0-18.7-12.6-32.9-30.8-32.9s-30.8,14.2-30.8,32.9M308.5,103.2c0-33.1,23.8-59,59.8-59s59.8,25.9,59.8,59-3.1,22.8-8.5,31.9l10.1,8.8-16.5,19.1-11.1-9.8c-9.3,5.9-20.9,9.3-33.9,9.3-36,0-59.8-25.7-59.8-59.3"/>
    <path class="st0" d="M454.5,116.6V46.4h27.9v70.2c0,12.4,7.5,20,19.9,20s19.6-7.7,19.6-20.2V46.4h27.9v70.1c0,26.7-17.4,46-47.6,46s-47.6-18.6-47.6-45.8"/>
  </g>
  <path class="st0" d="M627.3,75.9l-10.8,36.2h21.5l-10.8-36.2ZM609.4,134.9l-8.1,25.6h-28l39.4-114.1h29.3l39.4,114.1h-28l-8.1-25.6h-35.9Z"/>
  <polygon class="st0" points="704.7 160.4 704.7 46.4 732.6 46.4 732.6 135.5 766.8 135.5 766.8 160.4 704.7 160.4"/>
  <rect class="st0" x="791.6" y="46.4" width="27.9" height="114.1"/>
  <polygon class="st0" points="897.4 71.3 897.4 160.4 869.5 160.4 869.5 71.3 844.9 71.3 844.9 46.4 922 46.4 922 71.3 897.4 71.3"/>
  <polygon class="st0" points="978 160.4 978 108.9 943.2 46.4 974.4 46.4 991.9 83.7 1009.8 46.4 1040.6 46.4 1005.7 108.9 1005.7 160.4 978 160.4"/>
  <g>
    <path class="st0" d="M1147.3,71.3v24.6h8.3c7.7,0,12.4-4.7,12.4-12.6s-3.6-12.1-13.7-12.1h-7ZM1180.7,112.5s-.2-.3,26.2,48.9h-30.8l-20.4-42.2h-8.5v42.2h-27.9V47.3h37.2c26.9,0,39.9,12.4,39.9,35s-5.4,24.4-15.8,30.1"/>
    <path class="st0" d="M1253.6,104.2c0,19.2,12.7,33.2,30.8,33.2s30.8-14,30.8-33.2-12.6-32.9-30.8-32.9-30.8,14.2-30.8,32.9M1224.6,104.2c0-33.1,23.8-59,59.8-59s59.8,25.9,59.8,59-23.8,59.3-59.8,59.3-59.8-25.7-59.8-59.3"/>
    <path class="st0" d="M1394.3,104.2c0,19.2,12.7,33.2,30.8,33.2s30.8-14,30.8-33.2-12.6-32.9-30.8-32.9-30.8,14.2-30.8,32.9M1365.2,104.2c0-33.1,23.8-59,59.8-59s59.8,25.9,59.8,59-23.8,59.3-59.8,59.3-59.8-25.7-59.8-59.3"/>
  </g>
  <polygon class="st0" points="1552.2 72.3 1552.2 161.4 1524.3 161.4 1524.3 72.3 1499.7 72.3 1499.7 47.3 1576.8 47.3 1576.8 72.3 1552.2 72.3"/>
  <path class="st0" d="M1672.5,71.6l-23.1,10.6c-2.3-5.1-5.7-11.2-14.3-11.2s-9,3.3-9,7.7c0,15.5,47.6,13.9,47.6,48.7s-15,36.2-39.9,36.2-35.9-18.6-38.8-27.2l23.3-11.6c3.1,6.7,9.3,12.7,17.1,12.7s10.1-2.9,10.1-8c0-15.2-47.3-13.9-47.3-50.4s14.8-33.9,37.5-33.9,33.9,17.8,36.8,26.4"/>
</svg>