<?xml version="1.0" encoding="UTF-8"?>
<svg id="Layer_1" xmlns="http://www.w3.org/2000/svg" version="1.1" viewBox="0 0 1595.8 232.1">
  <!-- Generator: Adobe Illustrator 29.4.0, SVG Export Plug-In . SVG Version: 2.1.0 Build 152)  -->
  <defs>
    <style>
      .st0 {
        fill: #fff;
      }
    </style>
  </defs>
  <g>
    <path class="st0" d="M196.3,117.6c0,17.8,11.7,30.7,28.4,30.7s8-.8,11.3-2.3l-8.7-7.7,14.9-17.5,9.2,8c1.1-3.5,1.8-7.2,1.8-11.3,0-17.3-11.6-30.4-28.4-30.4s-28.4,13.1-28.4,30.4M169.5,117.6c0-30.5,22-54.5,55.2-54.5s55.2,23.9,55.2,54.5-2.9,21.1-7.8,29.5l9.3,8.1-15.2,17.6-10.2-9c-8.6,5.4-19.3,8.6-31.3,8.6-33.3,0-55.2-23.8-55.2-54.8"/>
    <path class="st0" d="M304.3,130v-64.8h25.7v64.8c0,11.4,6.9,18.5,18.4,18.5s18.1-7.1,18.1-18.7v-64.7h25.7v64.7c0,24.7-16.1,42.4-43.9,42.4s-43.9-17.1-43.9-42.3"/>
  </g>
  <path class="st0" d="M460.3,92.3l-9.9,33.4h19.9l-9.9-33.4ZM443.8,146.8l-7.5,23.6h-25.9l36.4-105.3h27.1l36.4,105.3h-25.9l-7.5-23.6h-33.1Z"/>
  <polygon class="st0" points="531.8 170.4 531.8 65.1 557.5 65.1 557.5 147.4 589.1 147.4 589.1 170.4 531.8 170.4"/>
  <rect class="st0" x="612" y="65.1" width="25.7" height="105.3"/>
  <polygon class="st0" points="709.7 88.1 709.7 170.4 683.9 170.4 683.9 88.1 661.2 88.1 661.2 65.1 732.4 65.1 732.4 88.1 709.7 88.1"/>
  <polygon class="st0" points="784.1 170.4 784.1 122.9 751.9 65.1 780.8 65.1 796.9 99.6 813.5 65.1 841.9 65.1 809.7 122.9 809.7 170.4 784.1 170.4"/>
  <g>
    <path class="st0" d="M940.4,88.1v22.7h7.7c7.1,0,11.4-4.4,11.4-11.6s-3.3-11.1-12.6-11.1h-6.5ZM971.3,126.2s-.2-.3,24.2,45.1h-28.4l-18.8-39h-7.8v39h-25.7v-105.3h34.3c24.8,0,36.9,11.4,36.9,32.3s-5,22.6-14.6,27.8"/>
    <path class="st0" d="M1038.6,118.5c0,17.8,11.7,30.7,28.4,30.7s28.4-12.9,28.4-30.7-11.6-30.4-28.4-30.4-28.4,13.1-28.4,30.4M1011.8,118.5c0-30.5,22-54.5,55.2-54.5s55.2,23.9,55.2,54.5-22,54.8-55.2,54.8-55.2-23.8-55.2-54.8"/>
    <path class="st0" d="M1168.4,118.5c0,17.8,11.7,30.7,28.4,30.7s28.4-12.9,28.4-30.7-11.6-30.4-28.4-30.4-28.4,13.1-28.4,30.4M1141.6,118.5c0-30.5,22-54.5,55.2-54.5s55.2,23.9,55.2,54.5-22,54.8-55.2,54.8-55.2-23.8-55.2-54.8"/>
  </g>
  <polygon class="st0" points="1314.2 89 1314.2 171.3 1288.5 171.3 1288.5 89 1265.8 89 1265.8 66 1336.9 66 1336.9 89 1314.2 89"/>
  <path class="st0" d="M1425.2,88.4l-21.4,9.8c-2.1-4.7-5.3-10.4-13.2-10.4s-8.3,3-8.3,7.1c0,14.3,43.9,12.8,43.9,45s-13.8,33.4-36.9,33.4-33.1-17.1-35.8-25.1l21.5-10.7c2.9,6.2,8.6,11.7,15.8,11.7s9.3-2.7,9.3-7.4c0-14-43.6-12.8-43.6-46.5s13.7-31.3,34.6-31.3,31.3,16.4,34,24.4"/>
  <path class="st0" d="M9.6,10.1h1576.6v211.8H9.6V10.1ZM0,232.1h1595.8V0H0v232.1Z"/>
</svg>