<?xml version="1.0" encoding="UTF-8"?>
<svg id="Layer_1" xmlns="http://www.w3.org/2000/svg" version="1.1" viewBox="0 0 550 550">
  <!-- Generator: Adobe Illustrator 29.4.0, SVG Export Plug-In . SVG Version: 2.1.0 Build 152)  -->
  <defs>
    <style>
      .st0 {
        fill: #fff;
      }
    </style>
  </defs>
  <path class="st0" d="M287.7,330.8l64.8,64.8-22.5,38.9,22.1,12.8,19-33,33.6,33.6-15.1,26h-102v-143ZM229.6,366.2l-44.1-76.3,76.7-76.7v260.6h-102l-31.8-55.1,64.7-64.7,14.4,25,22.1-12.8ZM45.5,275l114.8-198.8h102v100.8l-140,140,18.2,18,26.5-26.5,12.9,22.4-64.7,64.7-69.7-120.7ZM287.7,109v-32.7h102l114.8,198.8-86.6,149.9-130.2-130.2v-149.6l79.8,79.8-26.8,46.5,22.1,12.8,23.4-40.5,37,37,18-18.2-61.5-61.4h35v-25.5h-60.5l-66.5-66.4ZM145.5,50.7L16,275l129.5,224.3h259l129.5-224.3L404.5,50.7H145.5Z"/>
</svg>