<?xml version="1.0" encoding="UTF-8"?>
<svg id="Layer_1" xmlns="http://www.w3.org/2000/svg" version="1.1" viewBox="0 0 1245.2 316.6">
  <!-- Generator: Adobe Illustrator 29.4.0, SVG Export Plug-In . SVG Version: 2.1.0 Build 152)  -->
  <defs>
    <style>
      .st0 {
        fill: #fff;
      }
    </style>
  </defs>
  <path class="st0" d="M186.3,196.8l44.5,45.1-15.4,27.1,15.2,8.9,13-23,23,23.4-10.3,18.1h-69.9v-99.6ZM146.5,221.4l-30.2-53.1,52.6-53.4v181.5h-69.9l-21.8-38.4,44.3-45,9.9,17.4,15.2-8.9ZM20.2,157.9L98.9,19.5h69.9v70.2l-96,97.5,12.5,12.5,18.2-18.4,8.9,15.6-44.3,45-47.8-84.1ZM186.3,42.3v-22.8h69.9l78.7,138.4-59.4,104.4-89.3-90.7v-104.2l54.7,55.6-18.4,32.4,15.1,8.9,16.1-28.2,25.3,25.7,12.3-12.7-42.2-42.8h24v-17.8h-41.5l-45.6-46.3ZM88.8,1.7L0,157.9l88.8,156.2h177.6l88.8-156.2L266.4,1.7H88.8Z"/>
  <g>
    <path class="st0" d="M460.3,210.2h-8v28.4h9.4c4.3,0,7.7-1.3,10.3-3.9,2.5-2.6,3.8-6.1,3.8-10.6,0-9.3-5.2-13.9-15.5-13.9M508.2,223c0,7.5-1.5,14.4-4.6,20.6-3.1,6.2-7.5,10.9-13.3,14.2l29.8,56.4h-35l-23.1-48.7h-9.6v48.7h-31.6v-131.5h42.2c30.2,0,45.3,13.5,45.3,40.4"/>
    <path class="st0" d="M637.7,221c-6.5-7.2-14.9-10.8-25.2-10.8s-18.6,3.6-25.2,10.8c-6.5,7.2-9.8,16.3-9.8,27.2s3.3,20.3,9.8,27.5c6.5,7.2,14.9,10.8,25.2,10.8s18.6-3.6,25.2-10.8c6.5-7.2,9.8-16.4,9.8-27.5s-3.3-19.9-9.8-27.2M661.6,297.1c-12.6,13-28.9,19.4-49,19.4s-36.4-6.5-49-19.4c-12.6-13-18.9-29.3-18.9-48.9s6.3-35.6,18.9-48.6c12.6-13,28.9-19.4,49-19.4s36.4,6.5,49,19.4c12.6,13,18.9,29.2,18.9,48.6s-6.3,36-18.9,48.9"/>
    <path class="st0" d="M802,221c-6.5-7.2-14.9-10.8-25.2-10.8s-18.6,3.6-25.2,10.8c-6.5,7.2-9.8,16.3-9.8,27.2s3.3,20.3,9.8,27.5c6.5,7.2,14.9,10.8,25.2,10.8s18.6-3.6,25.2-10.8c6.5-7.2,9.8-16.4,9.8-27.5s-3.3-19.9-9.8-27.2M825.8,297.1c-12.6,13-28.9,19.4-49,19.4s-36.4-6.5-49-19.4c-12.6-13-18.9-29.3-18.9-48.9s6.3-35.6,18.9-48.6c12.6-13,28.9-19.4,49-19.4s36.4,6.5,49,19.4c12.6,13,18.9,29.2,18.9,48.6s-6.3,36-18.9,48.9"/>
  </g>
  <polygon class="st0" points="866.2 182.6 866.2 211.4 894.1 211.4 894.1 314.1 925.7 314.1 925.7 211.4 953.7 211.4 953.7 182.6 866.2 182.6"/>
  <g>
    <path class="st0" d="M1025.1,180.2c6.5,0,12.4,1.1,17.7,3.2,5.2,2.1,9.4,4.9,12.6,8.5,3.1,3.5,5.6,6.7,7.4,9.7,1.8,2.9,3.2,6,4.2,9.1l-26.3,12.2c-1.1-2.5-2.2-4.5-3.2-6.1-1-1.6-2.7-3.1-5-4.6-2.3-1.5-5-2.2-8.1-2.2s-5.6.8-7.4,2.5c-1.8,1.7-2.8,3.8-2.8,6.3s1.8,6.2,5.6,8.7c3.7,2.6,8.2,5,13.5,7.3,5.3,2.3,10.6,5,15.9,8,5.3,3,9.8,7.3,13.5,12.8,3.7,5.5,5.5,12,5.5,19.4,0,12.4-4.1,22.5-12.2,30.2-8.1,7.7-19.2,11.6-33.1,11.6s-12.9-1.1-18.5-3.4c-5.6-2.2-10-5.2-13.3-8.7-3.3-3.6-5.9-6.9-7.9-10-1.9-3.1-3.4-6.2-4.3-9.2l26.5-13.3c1.8,4.1,4.5,7.6,8,10.4,3.5,2.8,7.3,4.2,11.5,4.2,7.6,0,11.5-3.1,11.5-9.2s-1.3-5.1-4-7.4c-2.7-2.3-6-4.3-9.9-6-3.9-1.7-8.3-3.8-12.9-6.4-4.7-2.6-9-5.4-12.9-8.4-4-3-7.2-7.1-9.9-12.2-2.6-5.1-4-11-4-17.7,0-11.8,3.9-21.2,11.7-28.4,7.8-7.1,18.1-10.7,30.9-10.7"/>
    <path class="st0" d="M447.4,68.4c0,22.3,14.5,38.5,35.1,38.5s9.9-.9,13.9-2.8l-10.8-9.6,18.4-21.9,11.3,10c1.3-4.3,2.2-9.1,2.2-14.2,0-21.7-14.3-38.1-35.1-38.1s-35.1,16.4-35.1,38.1M414.3,68.4c0-38.3,27.1-68.4,68.2-68.4s68.2,30,68.2,68.4-3.5,26.4-9.7,37l11.5,10.2-18.8,22.1-12.6-11.3c-10.6,6.8-23.8,10.8-38.7,10.8-41.1,0-68.2-29.8-68.2-68.7"/>
    <path class="st0" d="M580.9,83.8V2.5h31.8v81.4c0,14.4,8.6,23.2,22.7,23.2s22.3-8.9,22.3-23.4V2.5h31.8v81.2c0,31-19.9,53.3-54.3,53.3s-54.3-21.5-54.3-53.1"/>
  </g>
  <path class="st0" d="M773.7,36.6l12.3,41.9h-24.5l12.3-41.9ZM756.9,2.5l-45,132.2h32l9.3-29.7h40.9l9.3,29.7h32L790.4,2.5h-33.5Z"/>
  <polygon class="st0" points="862 2.5 862 134.6 932.8 134.6 932.8 105.7 893.8 105.7 893.8 2.5 862 2.5"/>
  <rect class="st0" x="961.1" y="2.5" width="31.8" height="132.2"/>
  <polygon class="st0" points="1021.9 2.5 1021.9 31.4 1050 31.4 1050 134.6 1081.8 134.6 1081.8 31.4 1109.8 31.4 1109.8 2.5 1021.9 2.5"/>
  <polygon class="st0" points="1210 2.5 1189.6 45.7 1169.7 2.5 1134 2.5 1173.8 75 1173.8 134.6 1205.4 134.6 1205.4 75 1245.2 2.5 1210 2.5"/>
</svg>