<?xml version="1.0" encoding="UTF-8"?>
<svg id="Layer_1" data-name="Layer 1" xmlns="http://www.w3.org/2000/svg" viewBox="0 0 1595.79 232.14">
  <defs>
    <style>
      .cls-1 {
        fill: #385642;
      }
    </style>
  </defs>
  <g>
    <path class="cls-1" d="M196.27,117.63c0,17.75,11.74,30.69,28.44,30.69,4.06,0,7.97-.75,11.28-2.25l-8.73-7.67,14.89-17.46,9.18,7.97c1.05-3.46,1.81-7.22,1.81-11.28,0-17.31-11.59-30.39-28.44-30.39s-28.44,13.09-28.44,30.39M169.49,117.63c0-30.55,21.97-54.47,55.22-54.47s55.22,23.92,55.22,54.47c0,10.98-2.86,21.06-7.82,29.49l9.33,8.12-15.2,17.61-10.23-9.03c-8.58,5.42-19.26,8.57-31.3,8.57-33.25,0-55.22-23.77-55.22-54.77"/>
    <path class="cls-1" d="M304.31,129.97v-64.85h25.73v64.85c0,11.43,6.92,18.51,18.35,18.51s18.06-7.07,18.06-18.66v-64.7h25.73v64.7c0,24.67-16.1,42.43-43.94,42.43s-43.93-17.15-43.93-42.28"/>
  </g>
  <path class="cls-1" d="M460.34,92.35l-9.93,33.4h19.86l-9.93-33.4ZM443.79,146.82l-7.53,23.62h-25.87l36.41-105.32h27.09l36.41,105.32h-25.88l-7.52-23.62h-33.1Z"/>
  <polygon class="cls-1" points="531.82 170.44 531.82 65.12 557.55 65.12 557.55 147.42 589.14 147.42 589.14 170.44 531.82 170.44"/>
  <rect class="cls-1" x="612.02" y="65.12" width="25.73" height="105.32"/>
  <polygon class="cls-1" points="709.67 88.14 709.67 170.44 683.94 170.44 683.94 88.14 661.22 88.14 661.22 65.12 732.39 65.12 732.39 88.14 709.67 88.14"/>
  <polygon class="cls-1" points="784.15 170.44 784.15 122.9 751.95 65.12 780.84 65.12 796.94 99.57 813.49 65.12 841.93 65.12 809.73 122.9 809.73 170.44 784.15 170.44"/>
  <g>
    <path class="cls-1" d="M940.45,88.14v22.72h7.67c7.07,0,11.43-4.36,11.43-11.58s-3.31-11.14-12.64-11.14h-6.47ZM971.29,126.2s-.15-.3,24.23,45.14h-28.44l-18.81-38.97h-7.82v38.97h-25.73v-105.32h34.3c24.83,0,36.87,11.43,36.87,32.35,0,11.59-4.97,22.57-14.6,27.84"/>
    <path class="cls-1" d="M1038.55,118.53c0,17.75,11.74,30.69,28.44,30.69s28.44-12.94,28.44-30.69-11.59-30.39-28.44-30.39-28.44,13.09-28.44,30.39M1011.77,118.53c0-30.55,21.97-54.47,55.22-54.47s55.22,23.92,55.22,54.47-21.97,54.77-55.22,54.77-55.22-23.77-55.22-54.77"/>
    <path class="cls-1" d="M1168.41,118.53c0,17.75,11.74,30.69,28.44,30.69s28.44-12.94,28.44-30.69-11.59-30.39-28.44-30.39-28.44,13.09-28.44,30.39M1141.62,118.53c0-30.55,21.97-54.47,55.22-54.47s55.22,23.92,55.22,54.47-21.97,54.77-55.22,54.77-55.22-23.77-55.22-54.77"/>
  </g>
  <polygon class="cls-1" points="1314.21 89.04 1314.21 171.34 1288.48 171.34 1288.48 89.04 1265.76 89.04 1265.76 66.02 1336.93 66.02 1336.93 89.04 1314.21 89.04"/>
  <path class="cls-1" d="M1425.25,88.44l-21.37,9.78c-2.1-4.67-5.27-10.38-13.24-10.38-4.96,0-8.27,3.01-8.27,7.07,0,14.29,43.93,12.79,43.93,44.99,0,19.41-13.85,33.4-36.87,33.4s-33.1-17.15-35.81-25.12l21.52-10.68c2.86,6.17,8.57,11.73,15.8,11.73,6.17,0,9.33-2.71,9.33-7.37,0-14-43.63-12.79-43.63-46.49,0-18.96,13.69-31.29,34.61-31.29,22.57,0,31.29,16.4,34,24.37"/>
  <path class="cls-1" d="M9.61,10.15h1576.57v211.85H9.61V10.15ZM0,232.14h1595.79V0H0v232.14Z"/>
</svg>