<?xml version="1.0" encoding="UTF-8"?>
<svg id="Layer_1" data-name="Layer 1" xmlns="http://www.w3.org/2000/svg" viewBox="0 0 825.58 825.58">
  <defs>
    <style>
      .cls-1 {
        fill: #385642;
      }
    </style>
  </defs>
  <g>
    <path class="cls-1" d="M90.56,517.53c0,18.42,12.18,31.85,29.51,31.85,4.22,0,8.28-.78,11.71-2.34l-9.06-7.96,15.46-18.11,9.52,8.27c1.09-3.59,1.87-7.49,1.87-11.71,0-17.95-12.02-31.54-29.51-31.54s-29.51,13.58-29.51,31.54M62.76,517.53c0-31.69,22.79-56.52,57.3-56.52s57.3,24.82,57.3,56.52c0,11.39-2.97,21.86-8.12,30.6l9.68,8.43-15.77,18.27-10.62-9.37c-8.9,5.62-19.98,8.9-32.47,8.9-34.5,0-57.3-24.67-57.3-56.83"/>
    <path class="cls-1" d="M202.66,530.33v-67.29h26.7v67.29c0,11.87,7.18,19.2,19.05,19.2s18.73-7.33,18.73-19.36v-67.13h26.7v67.13c0,25.6-16.7,44.03-45.59,44.03s-45.59-17.8-45.59-43.87"/>
  </g>
  <path class="cls-1" d="M364.57,491.3l-10.31,34.66h20.61l-10.3-34.66ZM347.39,547.82l-7.81,24.51h-26.85l37.78-109.28h28.1l37.78,109.28h-26.85l-7.81-24.51h-34.35Z"/>
  <polygon class="cls-1" points="438.73 572.33 438.73 463.04 465.42 463.04 465.42 548.44 498.21 548.44 498.21 572.33 438.73 572.33"/>
  <rect class="cls-1" x="521.95" y="463.04" width="26.7" height="109.28"/>
  <polygon class="cls-1" points="623.27 486.93 623.27 572.32 596.57 572.32 596.57 486.93 573 486.93 573 463.04 646.84 463.04 646.84 486.93 623.27 486.93"/>
  <polygon class="cls-1" points="731 463.04 713.82 498.79 697.12 463.04 667.14 463.04 700.55 522.99 700.55 572.33 727.09 572.33 727.09 522.99 760.5 463.04 731 463.04"/>
  <g>
    <path class="cls-1" d="M173.85,624.99v23.57h7.96c7.34,0,11.87-4.53,11.87-12.02s-3.43-11.56-13.12-11.56h-6.71ZM205.85,664.49s-.16-.31,25.14,46.84h-29.51l-19.51-40.43h-8.12v40.43h-26.7v-109.29h35.6c25.76,0,38.25,11.87,38.25,33.57,0,12.02-5.15,23.42-15.15,28.88"/>
    <path class="cls-1" d="M275.65,656.53c0,18.42,12.18,31.85,29.51,31.85s29.51-13.43,29.51-31.85-12.02-31.54-29.51-31.54-29.51,13.58-29.51,31.54M247.86,656.53c0-31.69,22.79-56.52,57.3-56.52s57.3,24.82,57.3,56.52-22.79,56.83-57.3,56.83-57.3-24.67-57.3-56.83"/>
    <path class="cls-1" d="M410.39,656.53c0,18.42,12.18,31.85,29.51,31.85s29.51-13.43,29.51-31.85-12.02-31.54-29.51-31.54-29.51,13.58-29.51,31.54M382.6,656.53c0-31.69,22.79-56.52,57.3-56.52s57.3,24.82,57.3,56.52-22.79,56.83-57.3,56.83-57.3-24.67-57.3-56.83"/>
  </g>
  <polygon class="cls-1" points="511.41 602.04 511.41 625.93 534.98 625.93 534.98 711.33 561.68 711.33 561.68 625.93 585.25 625.93 585.25 602.04 511.41 602.04"/>
  <path class="cls-1" d="M676.9,625.3l-22.17,10.15c-2.18-4.84-5.46-10.77-13.74-10.77-5.15,0-8.58,3.12-8.58,7.33,0,14.83,45.59,13.27,45.59,46.68,0,20.14-14.37,34.66-38.25,34.66s-34.35-17.8-37.16-26.07l22.33-11.09c2.97,6.4,8.9,12.18,16.39,12.18,6.4,0,9.68-2.81,9.68-7.65,0-14.52-45.27-13.27-45.27-48.24,0-19.67,14.21-32.47,35.91-32.47,23.42,0,32.47,17.01,35.28,25.29"/>
  <path class="cls-1" d="M420.77,278.08l46.46,46.41-16.1,27.87,15.84,9.15,13.64-23.62,24.06,24.06-10.79,18.62h-73.11v-102.48ZM379.1,303.46l-31.6-54.67,54.98-54.97v186.75h-73.1l-22.82-39.51,46.35-46.34,10.34,17.89,15.84-9.14ZM247.14,238.11l82.24-142.45h73.1v72.23l-100.32,100.36,13.04,12.88,18.97-18.96,9.28,16.08-46.33,46.35-49.98-86.5ZM420.77,119.13v-23.47h73.11l82.25,142.45-62.03,107.43-93.32-93.32v-107.23l57.22,57.21-19.23,33.3,15.84,9.14,16.8-29.06,26.49,26.49,12.9-13.04-44.08-44.01h25.06v-18.3h-43.35l-47.63-47.61ZM318.83,77.37l-92.81,160.74,92.81,160.75h185.61l92.81-160.75-92.81-160.74h-185.61Z"/>
</svg>